<svg width="14" height="12" viewBox="0 0 14 12" fill="none" xmlns="http://www.w3.org/2000/svg">
<path fill-rule="evenodd" clip-rule="evenodd" d="M4.79977 0.0360377C3.20318 -0.0309482 1.60162 0.016899 0 0.0121423C0.0102476 4.00483 0.00509389 7.99763 0.00509389 11.9904C1.60162 12 3.20318 11.9952 4.79977 11.9904C4.82523 10.0131 4.76896 8.03115 4.82523 6.04911C5.3523 6.73374 5.82818 7.45184 6.36555 8.1269C7.26092 9.42907 8.27418 10.6547 9.13377 11.976C10.7457 12.0143 12.3525 11.976 13.9642 12C13.9796 11.8133 14 11.6266 14 11.4398C13.9745 7.62901 14.0205 3.81814 13.9796 0.00732944C12.3883 -0.00223998 10.7968 0.0121421 9.20539 0.00257266C9.19526 1.99413 9.2157 3.98569 9.19011 5.97249C7.71134 4.00964 6.31443 1.97981 4.79977 0.0360377Z" fill="white"/>
</svg>
